<?xml version="1.0" encoding="utf-8"?>
<!-- Generator: Adobe Illustrator 24.1.2, SVG Export Plug-In . SVG Version: 6.00 Build 0)  -->
<svg version="1.1" id="Layer_1" xmlns="http://www.w3.org/2000/svg" xmlns:xlink="http://www.w3.org/1999/xlink" x="0px" y="0px"
	 width="68px" height="42px" viewBox="0 0 68 42" enable-background="new 0 0 68 42" xml:space="preserve">
<g id="Слой_x0020_1">
	<g id="_668220864">
		<path fill-rule="evenodd" clip-rule="evenodd" fill="#EA5E20" d="M19.295,0c1.728,0,3.117,1.386,3.117,3.111
			s-1.388,3.111-3.117,3.111s-3.117-1.386-3.117-3.111S17.567,0,19.295,0z"/>
		<path fill-rule="evenodd" clip-rule="evenodd" fill="#006CB5" d="M15.102,22.117l2.323-11.115h2.295l-2.323,11.115H15.102z
			 M6.177,3.818h7.565c0.368,2.743,2.72,4.865,5.553,4.865s5.213-2.121,5.553-4.865h5.808l-1.53,7.184h-8.67l-0.397,1.867h3.258
			l-1.955,9.248h2.295l1.927-9.248h3.088l-1.898,8.853L17,25.879l-7.055-8.937l-7.367,3.988L6.092,3.846L6.177,3.818z
			 M60.038,20.562H61.2c0.85,0,1.445-0.057,1.813-0.141c0.368-0.113,0.737-0.311,1.048-0.594c0.453-0.396,0.822-0.962,1.133-1.64
			c0.312-0.679,0.453-1.499,0.453-2.404c0-0.792-0.113-1.386-0.397-1.782c-0.255-0.396-0.567-0.651-0.935-0.792
			c-0.255-0.085-0.737-0.141-1.417-0.141h-1.332l-1.558,7.495H60.038z M57.375,22.343l2.323-11.115h3.003c0.85,0,1.36,0,1.615,0.028
			c0.453,0.057,0.878,0.141,1.247,0.283c0.368,0.141,0.68,0.339,0.992,0.594s0.538,0.566,0.765,0.933s0.368,0.764,0.51,1.244
			c0.113,0.481,0.17,0.99,0.17,1.527c0,1.188-0.227,2.263-0.68,3.196c-0.453,0.933-1.048,1.669-1.728,2.206
			c-0.538,0.424-1.218,0.735-2.068,0.933c-0.482,0.113-1.218,0.17-2.182,0.17h-3.938H57.375z M56.128,22.343h-2.125L51,14.877
			l-1.558,7.467h-2.125l2.323-11.115h2.153l3.003,7.438l1.558-7.438h2.125l-2.323,11.115H56.128z M44.115,18.044l-0.652-4.469
			l-2.692,4.469H44.115z M44.398,19.883h-4.42l-1.332,2.461h-0.992h-1.36h-7.508l2.323-11.115h2.295l-1.927,9.248h5.865l5.242-9.248
			h2.55l1.813,11.115h-2.182L44.398,19.883z"/>
	</g>
	<path fill-rule="evenodd" clip-rule="evenodd" fill="#EA5E20" d="M64.118,38.974l0.028-0.226c-0.34,0.113-0.765,0.198-1.247,0.255
		c-0.482,0.057-0.765,0.255-0.822,0.594c-0.028,0.17,0,0.311,0.113,0.424c0.113,0.113,0.283,0.17,0.51,0.17
		c0.312,0,0.595-0.085,0.878-0.283c0.255-0.198,0.453-0.509,0.51-0.933H64.118z M64.657,40.586h-0.652
		c-0.028-0.113-0.057-0.255-0.057-0.453c-0.482,0.368-0.963,0.537-1.445,0.537c-0.397,0-0.68-0.085-0.878-0.283
		s-0.255-0.453-0.198-0.764s0.198-0.566,0.453-0.764c0.255-0.198,0.652-0.339,1.19-0.396l0.595-0.085
		c0.227-0.028,0.425-0.085,0.567-0.141c0.028-0.198,0.057-0.311,0.057-0.396c0-0.085-0.028-0.17-0.057-0.255
		c-0.028-0.085-0.113-0.141-0.227-0.198c-0.113-0.057-0.283-0.085-0.482-0.085c-0.283,0-0.482,0.057-0.652,0.141
		c-0.17,0.113-0.312,0.283-0.425,0.566l-0.595-0.085c0.142-0.368,0.368-0.651,0.68-0.848c0.312-0.198,0.708-0.283,1.19-0.283
		c0.453,0,0.765,0.057,0.935,0.198c0.198,0.141,0.283,0.283,0.312,0.481c0.028,0.198,0,0.424-0.057,0.707L64.77,39.03
		c-0.085,0.509-0.142,0.848-0.142,1.018s0.028,0.339,0.085,0.509L64.657,40.586z M61.143,39.313c-0.17,0.481-0.397,0.82-0.737,1.046
		s-0.68,0.339-1.048,0.339c-0.538,0-0.907-0.17-1.162-0.537c-0.227-0.339-0.283-0.82-0.198-1.386
		c0.085-0.481,0.227-0.877,0.453-1.16c0.227-0.283,0.453-0.481,0.737-0.622c0.283-0.113,0.538-0.17,0.822-0.17
		c0.368,0,0.68,0.085,0.935,0.283c0.227,0.198,0.34,0.481,0.34,0.877l-0.623,0.085c-0.028-0.255-0.085-0.424-0.198-0.566
		c-0.113-0.113-0.283-0.198-0.51-0.198c-0.34,0-0.652,0.113-0.85,0.368c-0.227,0.255-0.368,0.594-0.453,1.046
		c-0.085,0.453-0.057,0.792,0.085,1.046c0.142,0.255,0.368,0.368,0.708,0.368c0.255,0,0.482-0.085,0.68-0.226
		c0.17-0.141,0.312-0.396,0.425-0.707l0.595,0.085V39.313z M56.893,38.38c0.028-0.368-0.028-0.651-0.198-0.82
		c-0.17-0.17-0.397-0.255-0.623-0.255c-0.283,0-0.567,0.085-0.793,0.283c-0.227,0.198-0.368,0.453-0.453,0.764h2.097L56.893,38.38z
		 M57.46,38.889h-2.777c-0.057,0.396,0.028,0.707,0.198,0.933c0.17,0.226,0.397,0.311,0.708,0.311c0.227,0,0.453-0.057,0.623-0.198
		c0.17-0.113,0.34-0.311,0.482-0.566l0.623,0.085c-0.17,0.396-0.425,0.679-0.737,0.877c-0.312,0.198-0.68,0.311-1.105,0.311
		c-0.567,0-0.963-0.17-1.218-0.509c-0.255-0.339-0.34-0.792-0.227-1.386c0.113-0.594,0.34-1.046,0.708-1.414
		c0.368-0.368,0.822-0.537,1.36-0.537c0.283,0,0.51,0.057,0.737,0.17s0.397,0.311,0.538,0.594c0.113,0.283,0.142,0.707,0.028,1.301
		L57.46,38.889z M53.012,40.586h-0.623l0.283-1.64h-1.728l-0.283,1.64h-0.623l0.652-3.677h0.623l-0.283,1.527h1.728l0.283-1.527
		h0.623L53.012,40.586z M49.102,38.634c0.34,0.198,0.453,0.509,0.397,0.933c-0.057,0.339-0.227,0.594-0.51,0.82
		c-0.283,0.198-0.623,0.311-1.077,0.311c-0.85,0-1.275-0.368-1.275-1.131l0.623-0.141c0.028,0.255,0.085,0.424,0.227,0.537
		c0.142,0.113,0.312,0.198,0.51,0.198c0.227,0,0.397-0.057,0.567-0.17c0.17-0.113,0.255-0.283,0.283-0.453
		c0.028-0.113,0-0.226-0.028-0.339c-0.057-0.113-0.113-0.17-0.198-0.226c-0.085-0.028-0.255-0.057-0.538-0.057h-0.198l0.085-0.481
		h0.198c0.51,0,0.793-0.17,0.85-0.537c0.028-0.17,0-0.311-0.085-0.396c-0.085-0.113-0.227-0.141-0.425-0.141
		c-0.368,0-0.652,0.198-0.85,0.622l-0.595-0.085c0.142-0.339,0.34-0.594,0.623-0.764c0.255-0.17,0.567-0.255,0.907-0.255
		c0.368,0,0.652,0.113,0.85,0.311c0.198,0.198,0.255,0.481,0.198,0.792c-0.057,0.283-0.227,0.537-0.567,0.707L49.102,38.634z
		 M45.815,40.586h-0.623l0.482-2.8l-2.238,2.8h-0.68l0.652-3.677h0.623l-0.51,2.8l2.238-2.8h0.68l-0.652,3.677H45.815z
		 M40.375,40.162c0.312,0,0.595-0.141,0.822-0.396c0.227-0.255,0.397-0.594,0.482-1.046c0.085-0.396,0.028-0.735-0.113-0.962
		s-0.397-0.368-0.708-0.368c-0.34,0-0.623,0.141-0.85,0.396c-0.227,0.255-0.397,0.594-0.482,1.046
		c-0.085,0.396-0.028,0.735,0.142,0.962C39.837,40.02,40.063,40.162,40.375,40.162z M39.582,37.588
		c0.227-0.255,0.453-0.424,0.652-0.537c0.227-0.113,0.453-0.17,0.737-0.17c0.51,0,0.878,0.17,1.133,0.509s0.312,0.792,0.227,1.329
		c-0.113,0.566-0.34,1.046-0.708,1.386c-0.368,0.368-0.822,0.537-1.332,0.537c-0.283,0-0.51-0.028-0.708-0.113
		c-0.198-0.085-0.34-0.226-0.482-0.424c-0.113-0.198-0.198-0.424-0.255-0.707c-0.028-0.283,0-0.679,0.085-1.188
		c0.085-0.481,0.17-0.877,0.255-1.16c0.085-0.283,0.198-0.537,0.34-0.764s0.34-0.396,0.595-0.537
		c0.227-0.141,0.482-0.226,0.737-0.255s0.567-0.057,0.935-0.057c0.142,0,0.283,0,0.34,0c0.057,0,0.113-0.057,0.142-0.113h0.567
		c-0.028,0.141-0.085,0.255-0.142,0.368c-0.057,0.085-0.142,0.17-0.227,0.255c-0.085,0.057-0.17,0.113-0.283,0.113
		c-0.085,0.028-0.255,0.028-0.51,0.028c-0.51,0-0.878,0.028-1.133,0.085c-0.255,0.057-0.453,0.17-0.623,0.396
		c-0.17,0.198-0.312,0.537-0.397,1.018H39.582z M34.312,40.162c0.368,0,0.652-0.141,0.878-0.396
		c0.227-0.255,0.397-0.622,0.453-1.046c0.085-0.453,0.028-0.82-0.142-1.046c-0.17-0.226-0.397-0.339-0.708-0.339
		c-0.312,0-0.595,0.113-0.85,0.368c-0.255,0.226-0.425,0.594-0.482,1.075c-0.085,0.481-0.028,0.82,0.113,1.046
		c0.17,0.226,0.397,0.368,0.708,0.368L34.312,40.162z M34.907,36.824c0.51,0,0.878,0.17,1.162,0.481s0.368,0.792,0.255,1.386
		c-0.142,0.735-0.397,1.244-0.793,1.527c-0.397,0.311-0.822,0.453-1.275,0.453c-0.453,0-0.85-0.141-1.133-0.453
		s-0.368-0.792-0.255-1.471c0.113-0.651,0.368-1.131,0.765-1.442c0.397-0.311,0.822-0.481,1.303-0.481H34.907z M32.697,37.418
		h-1.502l-0.567,3.168h-0.623l0.652-3.677h2.125L32.697,37.418z M27.625,40.162c0.368,0,0.652-0.141,0.878-0.396
		c0.227-0.255,0.397-0.622,0.453-1.046c0.085-0.453,0.028-0.82-0.142-1.046c-0.17-0.226-0.397-0.339-0.708-0.339
		s-0.595,0.113-0.85,0.368c-0.255,0.226-0.425,0.594-0.482,1.075c-0.085,0.481-0.028,0.82,0.113,1.046
		c0.17,0.226,0.397,0.368,0.708,0.368L27.625,40.162z M28.22,36.824c0.51,0,0.878,0.17,1.162,0.481
		c0.283,0.311,0.368,0.792,0.255,1.386c-0.142,0.735-0.397,1.244-0.793,1.527c-0.397,0.311-0.822,0.453-1.275,0.453
		c-0.453,0-0.85-0.141-1.133-0.453c-0.283-0.311-0.368-0.792-0.255-1.471c0.113-0.651,0.368-1.131,0.765-1.442
		c0.397-0.311,0.822-0.481,1.303-0.481H28.22z M25.103,40.586H24.48l0.283-1.64h-1.728l-0.283,1.64h-0.623l0.652-3.677h0.623
		l-0.283,1.527h1.728l0.283-1.527h0.623L25.103,40.586z M22.072,37.418h-1.19l-0.567,3.168h-0.623l0.567-3.168h-1.19l0.085-0.509
		h3.003L22.072,37.418z M18.445,40.586h-0.68c-0.34-0.792-0.51-1.244-0.567-1.329c-0.028-0.085-0.085-0.17-0.17-0.255
		c-0.085-0.085-0.198-0.113-0.312-0.113H16.66l-0.312,1.697h-0.623l0.652-3.677H17l-0.283,1.584h0.057
		c0.17,0,0.312-0.057,0.425-0.141c0.085-0.085,0.227-0.255,0.368-0.509c0.283-0.453,0.482-0.735,0.595-0.82
		c0.142-0.085,0.312-0.113,0.567-0.113h0.227l-0.085,0.509H18.7c-0.142,0-0.227,0.028-0.283,0.057
		c-0.057,0.028-0.142,0.113-0.198,0.226c-0.198,0.339-0.34,0.566-0.425,0.679c-0.113,0.113-0.255,0.226-0.482,0.311
		c0.142,0.057,0.255,0.113,0.368,0.226s0.198,0.283,0.312,0.509l0.482,1.16H18.445z M14.733,38.38
		c0.028-0.368-0.028-0.651-0.198-0.82s-0.397-0.255-0.623-0.255c-0.283,0-0.567,0.085-0.793,0.283
		c-0.227,0.198-0.368,0.453-0.453,0.764h2.097L14.733,38.38z M15.3,38.889h-2.777c-0.057,0.396,0.028,0.707,0.198,0.933
		c0.17,0.226,0.397,0.311,0.708,0.311c0.227,0,0.453-0.057,0.623-0.198c0.17-0.113,0.34-0.311,0.482-0.566l0.623,0.085
		c-0.17,0.396-0.425,0.679-0.737,0.877c-0.312,0.198-0.68,0.311-1.105,0.311c-0.567,0-0.963-0.17-1.218-0.509
		c-0.255-0.339-0.34-0.792-0.227-1.386c0.113-0.594,0.34-1.046,0.708-1.414c0.368-0.368,0.822-0.537,1.388-0.537
		c0.283,0,0.51,0.057,0.737,0.17s0.397,0.311,0.538,0.594c0.113,0.283,0.142,0.707,0.028,1.301L15.3,38.889z M9.407,40.133
		c0.368,0,0.652-0.141,0.878-0.396c0.227-0.255,0.397-0.622,0.453-1.046c0.085-0.453,0.028-0.82-0.142-1.046
		c-0.17-0.226-0.397-0.339-0.708-0.339s-0.595,0.113-0.85,0.368c-0.255,0.226-0.425,0.594-0.482,1.075
		c-0.085,0.481-0.028,0.82,0.113,1.046c0.17,0.226,0.397,0.368,0.708,0.368L9.407,40.133z M10.002,36.796
		c0.51,0,0.878,0.17,1.162,0.481c0.283,0.311,0.368,0.792,0.255,1.386c-0.142,0.735-0.397,1.244-0.793,1.527
		c-0.397,0.311-0.822,0.453-1.275,0.453c-0.453,0-0.85-0.141-1.133-0.453c-0.283-0.311-0.368-0.792-0.255-1.471
		c0.113-0.651,0.368-1.131,0.765-1.442s0.822-0.481,1.303-0.481H10.002z M5.497,40.133c0.283,0,0.567-0.113,0.793-0.368
		c0.227-0.255,0.397-0.594,0.482-1.075c0.085-0.453,0.057-0.792-0.085-1.046c-0.142-0.255-0.368-0.368-0.652-0.368
		s-0.567,0.141-0.793,0.396c-0.227,0.283-0.397,0.622-0.482,1.046c-0.085,0.453-0.057,0.792,0.085,1.046
		C4.987,39.992,5.213,40.133,5.497,40.133z M5.015,37.362c0.312-0.368,0.68-0.566,1.162-0.566s0.85,0.17,1.048,0.537
		c0.227,0.339,0.283,0.82,0.17,1.358c-0.113,0.594-0.34,1.075-0.708,1.442c-0.368,0.339-0.793,0.537-1.247,0.537
		c-0.397,0-0.68-0.17-0.878-0.481H4.533L4.222,42H3.598l0.907-5.091h0.567L4.987,37.39l0,0L5.015,37.362z M2.918,40.558H2.295
		l0.567-3.168H1.19l-0.567,3.168H0l0.652-3.677H3.57L2.918,40.558z M63.92,31.762h0.737c0.68,0,1.048-0.198,1.133-0.594
		s-0.198-0.622-0.85-0.622h-0.822l-0.227,1.216H63.92z M64.232,30.036h0.878c0.482,0,0.85,0.113,1.077,0.311
		c0.227,0.198,0.34,0.481,0.255,0.82c-0.057,0.311-0.227,0.594-0.51,0.792s-0.652,0.311-1.077,0.311h-1.643l0.652-3.677h0.623
		L64.232,30.036z M63.155,29.131h-1.19l-0.567,3.168h-0.623l0.567-3.168h-1.19l0.085-0.509h3.003L63.155,29.131z M59.642,31.026
		c-0.17,0.481-0.397,0.82-0.737,1.046c-0.34,0.226-0.68,0.339-1.048,0.339c-0.538,0-0.907-0.17-1.162-0.537
		c-0.227-0.339-0.283-0.82-0.198-1.386c0.085-0.481,0.227-0.877,0.453-1.16c0.227-0.283,0.453-0.481,0.737-0.622
		c0.283-0.113,0.538-0.17,0.822-0.17c0.368,0,0.68,0.085,0.935,0.283c0.227,0.198,0.34,0.481,0.34,0.877l-0.623,0.085
		c-0.028-0.255-0.085-0.424-0.198-0.566c-0.113-0.113-0.283-0.198-0.51-0.198c-0.34,0-0.652,0.113-0.85,0.368
		c-0.227,0.255-0.368,0.594-0.453,1.046c-0.085,0.453-0.057,0.792,0.085,1.046s0.368,0.368,0.708,0.368
		c0.255,0,0.482-0.085,0.68-0.226c0.17-0.141,0.312-0.396,0.425-0.707l0.595,0.085V31.026z M54.003,31.875
		c0.368,0,0.652-0.141,0.878-0.396c0.227-0.255,0.397-0.622,0.453-1.046c0.085-0.453,0.028-0.82-0.142-1.046
		c-0.17-0.226-0.397-0.339-0.708-0.339c-0.312,0-0.595,0.113-0.85,0.368c-0.255,0.226-0.425,0.594-0.482,1.075
		c-0.085,0.481-0.028,0.82,0.113,1.046c0.17,0.226,0.397,0.368,0.708,0.368L54.003,31.875z M54.598,28.537
		c0.51,0,0.878,0.17,1.162,0.481c0.283,0.311,0.34,0.792,0.255,1.386c-0.142,0.735-0.397,1.244-0.793,1.527
		c-0.397,0.311-0.822,0.453-1.275,0.453s-0.85-0.141-1.133-0.453c-0.283-0.311-0.368-0.792-0.255-1.471
		c0.113-0.651,0.368-1.131,0.765-1.442c0.397-0.311,0.822-0.481,1.303-0.481H54.598z M51.482,32.299h-0.623l0.283-1.64h-1.728
		l-0.283,1.64h-0.623l0.652-3.677h0.623l-0.283,1.527h1.728l0.283-1.527h0.623L51.482,32.299z M45.418,31.79h0.907
		c0.567,0,0.907-0.17,0.963-0.537c0.028-0.113,0-0.226-0.057-0.311s-0.142-0.17-0.255-0.198c-0.113-0.028-0.283-0.057-0.51-0.057
		h-0.85L45.418,31.79z M45.702,30.178h0.737c0.567,0,0.878-0.17,0.935-0.509c0.028-0.198,0-0.339-0.142-0.396
		c-0.142-0.085-0.34-0.113-0.595-0.113h-0.765L45.702,30.178z M47.458,30.404c0.17,0.085,0.312,0.198,0.397,0.339
		c0.085,0.17,0.085,0.339,0.057,0.537c-0.057,0.311-0.227,0.566-0.482,0.764c-0.255,0.198-0.595,0.283-0.992,0.283h-1.757
		l0.652-3.677h1.53c0.51,0,0.85,0.113,1.02,0.311c0.17,0.198,0.227,0.424,0.17,0.679c-0.057,0.339-0.255,0.594-0.595,0.792V30.404z
		 M43.747,32.327h-0.623l0.482-2.8l-2.238,2.8h-0.68l0.652-3.677h0.623l-0.51,2.8l2.238-2.8h0.68l-0.652,3.677H43.747z
		 M40.658,29.16h-1.19l-0.567,3.168h-0.623l0.567-3.168h-1.19l0.085-0.509h3.003L40.658,29.16z M37.032,32.327h-0.68
		c-0.34-0.792-0.51-1.244-0.567-1.329c-0.028-0.085-0.085-0.17-0.17-0.255c-0.085-0.085-0.198-0.113-0.312-0.113h-0.057
		l-0.312,1.697h-0.623l0.652-3.677h0.623l-0.283,1.584h0.057c0.17,0,0.312-0.057,0.425-0.141c0.085-0.085,0.227-0.255,0.368-0.509
		c0.283-0.453,0.482-0.735,0.595-0.82c0.142-0.085,0.312-0.113,0.567-0.113h0.227l-0.085,0.509h-0.17
		c-0.142,0-0.227,0.028-0.283,0.057s-0.142,0.113-0.198,0.226c-0.198,0.339-0.34,0.566-0.425,0.679
		c-0.113,0.113-0.255,0.226-0.482,0.311c0.142,0.057,0.255,0.113,0.368,0.226c0.113,0.113,0.198,0.283,0.312,0.509l0.482,1.16
		H37.032z M33.32,30.121c0.028-0.368-0.028-0.651-0.198-0.82c-0.17-0.17-0.397-0.255-0.623-0.255c-0.283,0-0.567,0.085-0.793,0.283
		c-0.227,0.198-0.368,0.453-0.453,0.764h2.097L33.32,30.121z M33.887,30.63H31.11c-0.057,0.396,0.028,0.707,0.198,0.933
		c0.17,0.226,0.397,0.311,0.708,0.311c0.227,0,0.453-0.057,0.623-0.198c0.17-0.113,0.34-0.311,0.482-0.566l0.623,0.085
		c-0.17,0.396-0.425,0.679-0.737,0.877c-0.312,0.198-0.68,0.311-1.105,0.311c-0.567,0-0.963-0.17-1.218-0.509
		c-0.255-0.339-0.34-0.792-0.227-1.386c0.113-0.594,0.34-1.046,0.708-1.414c0.368-0.368,0.822-0.537,1.388-0.537
		c0.283,0,0.51,0.057,0.737,0.17c0.227,0.113,0.397,0.311,0.538,0.594c0.113,0.283,0.142,0.707,0.028,1.301L33.887,30.63z
		 M25.925,31.875c0.538,0,0.907-0.453,1.077-1.386c0.17-0.962-0.028-1.471-0.595-1.471c-0.255,0-0.51,0.113-0.708,0.368
		s-0.34,0.594-0.425,1.046c-0.085,0.453-0.057,0.82,0.057,1.046c0.113,0.255,0.312,0.368,0.595,0.368V31.875z M28.163,31.875
		c0.283,0,0.538-0.113,0.737-0.368s0.368-0.594,0.425-1.075c0.085-0.453,0.057-0.792-0.057-1.018
		c-0.113-0.255-0.312-0.368-0.595-0.368c-0.283,0-0.51,0.113-0.708,0.368c-0.17,0.226-0.312,0.622-0.397,1.103
		c-0.17,0.905,0.028,1.358,0.567,1.358H28.163z M27.88,28.962c0.17-0.17,0.34-0.283,0.482-0.339c0.142-0.057,0.312-0.085,0.51-0.085
		c0.425,0,0.737,0.17,0.935,0.537c0.198,0.339,0.255,0.82,0.17,1.386c-0.113,0.594-0.312,1.046-0.68,1.414
		c-0.34,0.368-0.708,0.537-1.133,0.537c-0.34,0-0.623-0.141-0.85-0.396l-0.312,1.725h-0.623l0.312-1.725
		c-0.312,0.283-0.623,0.396-0.963,0.396c-0.425,0-0.737-0.17-0.935-0.537c-0.198-0.368-0.255-0.848-0.17-1.414
		c0.085-0.566,0.312-1.018,0.652-1.358c0.34-0.339,0.708-0.537,1.133-0.537c0.368,0,0.652,0.141,0.822,0.453l0.312-1.754h0.623
		l-0.312,1.754L27.88,28.962z M20.06,31.875c0.538,0,0.907-0.453,1.077-1.386c0.17-0.962-0.028-1.471-0.595-1.471
		c-0.255,0-0.51,0.113-0.708,0.368c-0.198,0.255-0.34,0.594-0.425,1.046c-0.085,0.453-0.057,0.82,0.057,1.046
		c0.113,0.255,0.312,0.368,0.595,0.368V31.875z M22.298,31.875c0.283,0,0.538-0.113,0.737-0.368s0.368-0.594,0.425-1.075
		c0.085-0.453,0.057-0.792-0.057-1.018c-0.113-0.255-0.312-0.368-0.595-0.368c-0.283,0-0.51,0.113-0.708,0.368
		c-0.17,0.226-0.312,0.622-0.397,1.103c-0.17,0.905,0.028,1.358,0.567,1.358H22.298z M22.015,28.962
		c0.17-0.17,0.34-0.283,0.482-0.339c0.142-0.057,0.312-0.085,0.51-0.085c0.425,0,0.737,0.17,0.935,0.537
		c0.198,0.339,0.255,0.82,0.17,1.386c-0.113,0.594-0.312,1.046-0.68,1.414c-0.34,0.368-0.708,0.537-1.133,0.537
		c-0.34,0-0.623-0.141-0.85-0.396l-0.312,1.725h-0.623l0.312-1.725c-0.312,0.283-0.623,0.396-0.963,0.396
		c-0.425,0-0.737-0.17-0.935-0.537c-0.198-0.368-0.255-0.848-0.17-1.414c0.085-0.566,0.312-1.018,0.652-1.358
		c0.34-0.339,0.708-0.537,1.133-0.537c0.368,0,0.652,0.141,0.822,0.453l0.312-1.754h0.623l-0.312,1.754L22.015,28.962z
		 M14.082,28.594c0.227-0.481,0.538-0.848,0.935-1.103s0.85-0.396,1.332-0.396c0.737,0,1.275,0.226,1.615,0.707
		c0.368,0.481,0.453,1.103,0.34,1.895c-0.113,0.594-0.312,1.103-0.595,1.527c-0.312,0.424-0.623,0.707-0.992,0.877
		c-0.368,0.17-0.793,0.255-1.247,0.255c-0.538,0-0.963-0.141-1.275-0.424c-0.312-0.283-0.51-0.707-0.538-1.273l0.708-0.17
		c0.028,0.424,0.142,0.735,0.368,0.962c0.227,0.226,0.51,0.339,0.878,0.339c0.482,0,0.907-0.17,1.247-0.481
		c0.34-0.311,0.595-0.764,0.737-1.358h-1.898l0.113-0.594h1.87c0.028-0.537-0.057-0.962-0.312-1.244
		c-0.227-0.283-0.595-0.424-1.077-0.424c-0.68,0-1.19,0.368-1.558,1.075l-0.623-0.17H14.082z"/>
</g>
</svg>
